<svg width="370" height="642" viewBox="0 0 370 642" fill="none" xmlns="http://www.w3.org/2000/svg">
<circle cx="183.971" cy="439" r="160" fill="white" fill-opacity="0.25"/>
<rect x="49.9712" y="305.589" width="270" height="270" rx="135" fill="#D6AEFE"/>
<g opacity="0.8">
<path d="M101.626 420.719C101.453 420.715 101.279 420.712 101.104 420.712C90.5375 420.712 81.9712 429.612 81.9712 440.589C81.9712 451.567 90.5375 460.467 101.104 460.467C101.279 460.467 101.453 460.464 101.626 460.46C101.873 460.464 102.123 460.467 102.38 460.467C130.634 460.467 168.708 451.567 168.708 440.589C168.708 429.612 130.634 420.712 102.38 420.712C102.123 420.712 101.873 420.715 101.626 420.719Z" fill="url(#paint0_linear)"/>
</g>
<g opacity="0.8">
<path d="M268.316 460.46C268.489 460.464 268.664 460.467 268.838 460.467C279.405 460.467 287.971 451.567 287.971 440.589C287.971 429.612 279.405 420.712 268.838 420.712C268.664 420.712 268.489 420.715 268.316 420.719C268.069 420.715 267.819 420.712 267.563 420.712C239.309 420.712 201.234 429.612 201.234 440.589C201.234 451.567 239.309 460.467 267.563 460.467C267.819 460.467 268.069 460.464 268.316 460.46Z" fill="url(#paint1_linear)"/>
</g>
<g opacity="0.8">
<path d="M208.984 522.184C209.067 522.336 209.152 522.489 209.239 522.64C214.522 531.791 226.513 534.76 236.02 529.271C245.527 523.782 248.951 511.914 243.667 502.763C243.58 502.612 243.491 502.462 243.4 502.314C243.281 502.098 243.158 501.88 243.029 501.658C228.903 477.19 202.158 448.666 192.651 454.155C183.144 459.644 194.474 497.067 208.601 521.535C208.729 521.757 208.857 521.973 208.984 522.184Z" fill="url(#paint2_linear)"/>
</g>
<g opacity="0.8">
<path d="M160.958 359.521C160.875 359.369 160.79 359.217 160.703 359.066C155.42 349.915 143.429 346.946 133.922 352.435C124.415 357.924 120.991 369.792 126.275 378.943C126.362 379.094 126.451 379.244 126.542 379.392C126.661 379.607 126.784 379.825 126.913 380.048C141.039 404.516 167.784 433.04 177.291 427.551C186.798 422.062 175.468 384.639 161.341 360.171C161.213 359.948 161.085 359.733 160.958 359.521Z" fill="url(#paint3_linear)"/>
</g>
<g opacity="0.8">
<path d="M126.542 502.314C126.452 502.462 126.362 502.612 126.275 502.763C120.992 511.914 124.416 523.782 133.923 529.271C143.43 534.76 155.42 531.791 160.703 522.64C160.791 522.489 160.876 522.336 160.958 522.184C161.085 521.973 161.213 521.757 161.341 521.535C175.468 497.067 186.798 459.644 177.291 454.155C167.784 448.666 141.04 477.19 126.913 501.658C126.785 501.88 126.662 502.098 126.542 502.314Z" fill="url(#paint4_linear)"/>
</g>
<g opacity="0.8">
<path d="M243.4 379.392C243.49 379.244 243.58 379.094 243.667 378.943C248.95 369.792 245.526 357.924 236.019 352.435C226.512 346.946 214.522 349.915 209.239 359.066C209.151 359.217 209.066 359.369 208.984 359.521C208.857 359.733 208.729 359.948 208.601 360.171C194.474 384.639 183.144 422.062 192.651 427.551C202.158 433.04 228.902 404.516 243.029 380.048C243.157 379.825 243.28 379.607 243.4 379.392Z" fill="url(#paint5_linear)"/>
</g>
<path d="M103.64 464.865C103.488 464.948 103.335 465.033 103.184 465.12C94.0331 470.403 91.0642 482.394 96.553 491.901C102.042 501.408 113.91 504.832 123.061 499.548C123.212 499.461 123.362 499.372 123.51 499.281C123.726 499.162 123.944 499.039 124.166 498.911C148.635 484.784 177.158 458.039 171.669 448.532C166.18 439.025 128.757 450.355 104.289 464.482C104.067 464.611 103.851 464.738 103.64 464.865Z" fill="white"/>
<path d="M266.303 416.84C266.455 416.757 266.607 416.672 266.758 416.585C275.909 411.301 278.878 399.311 273.389 389.804C267.9 380.297 256.032 376.873 246.881 382.157C246.73 382.244 246.58 382.333 246.433 382.424C246.217 382.543 245.999 382.666 245.776 382.794C221.308 396.921 192.784 423.666 198.273 433.173C203.762 442.68 241.185 431.349 265.654 417.223C265.876 417.094 266.091 416.967 266.303 416.84Z" fill="white"/>
<path d="M246.433 499.281C246.581 499.371 246.73 499.461 246.881 499.548C256.033 504.831 267.901 501.407 273.39 491.9C278.879 482.393 275.91 470.403 266.759 465.12C266.608 465.033 266.455 464.948 266.303 464.865C266.092 464.738 265.876 464.61 265.654 464.482C241.185 450.355 203.762 439.025 198.273 448.532C192.785 458.039 221.308 484.783 245.777 498.91C245.999 499.039 246.217 499.161 246.433 499.281Z" fill="white"/>
<path d="M123.509 382.424C123.362 382.333 123.212 382.244 123.061 382.157C113.91 376.873 102.041 380.297 96.5526 389.804C91.0637 399.311 94.0327 411.302 103.184 416.585C103.335 416.672 103.487 416.757 103.639 416.84C103.851 416.967 104.066 417.094 104.288 417.223C128.757 431.35 166.18 442.68 171.669 433.173C177.158 423.666 148.634 396.921 124.166 382.794C123.943 382.666 123.725 382.543 123.509 382.424Z" fill="white"/>
<path d="M165.101 523.934C165.097 524.108 165.094 524.282 165.094 524.456C165.094 535.023 173.993 543.589 184.971 543.589C195.949 543.589 204.848 535.023 204.848 524.456C204.848 524.282 204.846 524.108 204.841 523.934C204.846 523.688 204.848 523.437 204.848 523.181C204.848 494.927 195.949 456.853 184.971 456.853C173.993 456.853 165.094 494.927 165.094 523.181C165.094 523.437 165.097 523.688 165.101 523.934Z" fill="white"/>
<path d="M204.841 357.245C204.846 357.071 204.848 356.897 204.848 356.723C204.848 346.156 195.949 337.589 184.971 337.589C173.993 337.589 165.094 346.156 165.094 356.723C165.094 356.897 165.097 357.071 165.101 357.245C165.097 357.491 165.094 357.742 165.094 357.998C165.094 386.252 173.993 424.326 184.971 424.326C195.949 424.326 204.848 386.252 204.848 357.998C204.848 357.742 204.846 357.491 204.841 357.245Z" fill="white"/>
<ellipse cx="184.971" cy="441.756" rx="21.6842" ry="21.6842" fill="#FFB84C"/>
<path d="M319.696 537.03C328.107 584.21 321.558 600.057 289.704 613.469C269.08 622.152 246.37 623.879 229.32 611.895C220.036 605.368 208.657 591.961 207.742 580.075C201.188 564.508 210.997 570.562 218.081 559.36C225.493 547.638 230.7 518.869 246.988 512.011C273.297 500.934 296.378 491.502 312.126 513.22C315.445 517.797 318.05 531.178 319.696 537.03Z" fill="#FBD6BB"/>
<path d="M262.093 503.197C266.618 513.944 263.129 525.668 254.302 529.384C245.475 533.101 234.652 527.402 230.127 516.656C225.007 504.495 229.091 494.186 237.918 490.469C246.745 486.753 257.569 492.451 262.093 503.197Z" fill="#FBD6BB"/>
<ellipse cx="274.601" cy="513.475" rx="18.0958" ry="21.8658" transform="rotate(-22.8325 274.601 513.475)" fill="#FBD6BB"/>
<ellipse cx="299.618" cy="518.486" rx="13.5719" ry="21.1118" transform="rotate(-22.8325 299.618 518.486)" fill="#FBD6BB"/>
<path d="M172.781 442.629L195.018 433.266L257.922 567.129L225.956 580.587L172.781 442.629Z" fill="#FBD6BB"/>
<circle cx="183.899" cy="437.948" r="12.0639" transform="rotate(-22.8325 183.899 437.948)" fill="#FBD6BB"/>
<path d="M192.257 434.481C192.288 434.555 192.318 434.629 192.347 434.703L192.35 434.701L194.579 439.996L177.901 447.018L175.672 441.723L175.675 441.722C175.642 441.65 175.61 441.576 175.579 441.503C173.63 436.873 175.783 431.548 180.388 429.609C184.994 427.67 190.307 429.851 192.257 434.481Z" fill="#FFEDE0" fill-opacity="0.7"/>
<path d="M195.652 528.026C198.312 533.214 196.588 539.41 191.799 541.866C187.011 544.322 182.211 541.472 179.55 536.285C176.89 531.097 177.376 525.536 182.165 523.081C186.953 520.625 192.991 522.839 195.652 528.026Z" fill="#FBD6BB"/>
<path d="M207.456 591.457C200.908 583.291 186.228 551.22 179.55 536.285L194.964 526.685L229.249 569.264L250.257 591.537L228.041 610.797C218.093 602.714 214.039 599.668 207.456 591.457Z" fill="#FBD6BB"/>
<mask id="mask0" mask-type="alpha" maskUnits="userSpaceOnUse" x="175" y="509" width="80" height="110">
<path d="M194.881 526.736L194.964 526.684L229.25 569.264L250.257 591.537L228.703 612.76C225.854 609.739 222.926 607.031 220.014 604.339C215.684 600.336 211.392 596.367 207.456 591.458C200.908 583.291 186.228 551.22 179.551 536.285C176.89 531.097 177.376 525.536 182.165 523.081C186.535 520.839 191.946 522.488 194.881 526.736Z" fill="#FBD6BB"/>
</mask>
<g mask="url(#mask0)">
<path d="M189.962 533.956C189.999 534.045 190.035 534.133 190.07 534.222L190.073 534.221L192.748 540.574L173.29 548.767L170.615 542.413L170.619 542.412C170.58 542.325 170.541 542.237 170.504 542.148C168.165 536.593 170.624 530.255 175.997 527.993C181.37 525.73 187.622 528.4 189.962 533.956Z" fill="#FFEDE0" fill-opacity="0.7"/>
</g>
<defs>
<linearGradient id="paint0_linear" x1="81.9712" y1="440.589" x2="168.708" y2="440.589" gradientUnits="userSpaceOnUse">
<stop stop-color="white" stop-opacity="0.9"/>
<stop offset="1" stop-color="white" stop-opacity="0.8"/>
</linearGradient>
<linearGradient id="paint1_linear" x1="287.971" y1="440.589" x2="201.234" y2="440.589" gradientUnits="userSpaceOnUse">
<stop stop-color="white" stop-opacity="0.9"/>
<stop offset="1" stop-color="white" stop-opacity="0.8"/>
</linearGradient>
<linearGradient id="paint2_linear" x1="236.02" y1="529.271" x2="192.651" y2="454.155" gradientUnits="userSpaceOnUse">
<stop stop-color="white" stop-opacity="0.9"/>
<stop offset="1" stop-color="white" stop-opacity="0.8"/>
</linearGradient>
<linearGradient id="paint3_linear" x1="133.922" y1="352.435" x2="177.291" y2="427.551" gradientUnits="userSpaceOnUse">
<stop stop-color="white" stop-opacity="0.9"/>
<stop offset="1" stop-color="white" stop-opacity="0.8"/>
</linearGradient>
<linearGradient id="paint4_linear" x1="133.923" y1="529.271" x2="177.291" y2="454.155" gradientUnits="userSpaceOnUse">
<stop stop-color="white" stop-opacity="0.9"/>
<stop offset="1" stop-color="white" stop-opacity="0.8"/>
</linearGradient>
<linearGradient id="paint5_linear" x1="236.019" y1="352.435" x2="192.651" y2="427.551" gradientUnits="userSpaceOnUse">
<stop stop-color="white" stop-opacity="0.9"/>
<stop offset="1" stop-color="white" stop-opacity="0.8"/>
</linearGradient>
</defs>
</svg>
