<svg width="321" height="320" viewBox="0 0 321 320" fill="none" xmlns="http://www.w3.org/2000/svg">
<circle cx="160.971" cy="160" r="160" fill="white" fill-opacity="0.25"/>
<rect x="25.9711" y="25" width="270" height="270" rx="24" fill="#D6AEFE"/>
<g opacity="0.8">
<path d="M95.428 170.374C95.2919 170.37 95.1547 170.368 95.0176 170.368C86.7077 170.368 79.9711 177.367 79.9711 186C79.9711 194.633 86.7077 201.632 95.0176 201.632C95.1547 201.632 95.2919 201.63 95.428 201.626C95.622 201.63 95.8189 201.632 96.0207 201.632C118.24 201.632 148.182 194.633 148.182 186C148.182 177.367 118.24 170.368 96.0207 170.368C95.8189 170.368 95.622 170.37 95.428 170.374Z" fill="url(#paint0_linear)"/>
</g>
<g opacity="0.8">
<path d="M226.514 201.626C226.65 201.63 226.788 201.632 226.925 201.632C235.235 201.632 241.971 194.633 241.971 186C241.971 177.367 235.235 170.368 226.925 170.368C226.788 170.368 226.65 170.37 226.514 170.374C226.32 170.37 226.123 170.368 225.922 170.368C203.703 170.368 173.761 177.367 173.761 186C173.761 194.633 203.703 201.632 225.922 201.632C226.123 201.632 226.32 201.63 226.514 201.626Z" fill="url(#paint1_linear)"/>
</g>
<g opacity="0.8">
<path d="M179.855 250.167C179.92 250.286 179.987 250.406 180.055 250.525C184.21 257.722 193.64 260.056 201.116 255.74C208.592 251.423 211.285 242.09 207.13 234.893C207.062 234.775 206.991 234.657 206.92 234.541C206.826 234.371 206.729 234.2 206.629 234.025C195.519 214.783 174.487 192.351 167.011 196.668C159.534 200.984 168.444 230.414 179.554 249.656C179.655 249.831 179.755 250.001 179.855 250.167Z" fill="url(#paint2_linear)"/>
</g>
<g opacity="0.8">
<path d="M142.087 122.248C142.022 122.128 141.955 122.008 141.886 121.889C137.732 114.693 128.302 112.358 120.826 116.674C113.35 120.991 110.657 130.324 114.812 137.521C114.88 137.64 114.951 137.757 115.022 137.873C115.116 138.043 115.212 138.215 115.313 138.39C126.423 157.632 147.455 180.063 154.931 175.746C162.408 171.43 153.498 142 142.388 122.758C142.287 122.583 142.187 122.414 142.087 122.248Z" fill="url(#paint3_linear)"/>
</g>
<g opacity="0.8">
<path d="M115.022 234.541C114.951 234.657 114.881 234.775 114.812 234.893C110.657 242.09 113.35 251.423 120.826 255.74C128.303 260.056 137.732 257.722 141.887 250.525C141.955 250.406 142.022 250.287 142.087 250.167C142.187 250.001 142.287 249.831 142.388 249.656C153.498 230.414 162.408 200.984 154.931 196.668C147.455 192.351 126.423 214.783 115.314 234.025C115.213 234.2 115.116 234.371 115.022 234.541Z" fill="url(#paint4_linear)"/>
</g>
<g opacity="0.8">
<path d="M206.92 137.873C206.991 137.757 207.061 137.64 207.13 137.521C211.285 130.324 208.592 120.991 201.116 116.674C193.639 112.358 184.21 114.693 180.055 121.889C179.987 122.008 179.92 122.128 179.855 122.247C179.755 122.414 179.655 122.583 179.554 122.758C168.444 142 159.534 171.43 167.01 175.746C174.487 180.063 195.519 157.632 206.628 138.39C206.729 138.215 206.826 138.043 206.92 137.873Z" fill="url(#paint5_linear)"/>
</g>
<path d="M97.0115 205.091C96.8918 205.156 96.772 205.222 96.6532 205.291C89.4567 209.446 87.1219 218.875 91.4384 226.352C95.7549 233.828 105.088 236.521 112.285 232.366C112.404 232.297 112.521 232.227 112.637 232.156C112.807 232.062 112.979 231.965 113.154 231.864C132.396 220.755 154.827 199.723 150.51 192.246C146.194 184.77 116.764 193.68 97.5219 204.789C97.3472 204.89 97.1777 204.991 97.0115 205.091Z" fill="white"/>
<path d="M224.931 167.323C225.05 167.258 225.17 167.191 225.289 167.123C232.486 162.968 234.82 153.538 230.504 146.062C226.187 138.586 216.854 135.893 209.657 140.048C209.539 140.116 209.421 140.187 209.305 140.258C209.135 140.352 208.964 140.449 208.789 140.549C189.547 151.659 167.115 172.691 171.432 180.167C175.748 187.644 205.178 178.734 224.42 167.624C224.595 167.523 224.765 167.423 224.931 167.323Z" fill="white"/>
<path d="M209.305 232.155C209.421 232.227 209.539 232.297 209.658 232.365C216.854 236.52 226.188 233.828 230.504 226.351C234.821 218.875 232.486 209.446 225.289 205.291C225.171 205.222 225.051 205.155 224.931 205.09C224.765 204.99 224.595 204.89 224.421 204.789C205.178 193.68 175.749 184.77 171.432 192.246C167.116 199.722 189.547 220.754 208.789 231.864C208.964 231.965 209.135 232.062 209.305 232.155Z" fill="white"/>
<path d="M112.637 140.258C112.521 140.187 112.403 140.117 112.284 140.048C105.088 135.893 95.7546 138.586 91.4381 146.062C87.1216 153.539 89.4564 162.968 96.6529 167.123C96.7717 167.191 96.8914 167.258 97.0111 167.323C97.1773 167.423 97.3468 167.523 97.5216 167.624C116.764 178.734 146.194 187.644 150.51 180.167C154.827 172.691 132.395 151.659 113.153 140.55C112.978 140.449 112.807 140.352 112.637 140.258Z" fill="white"/>
<path d="M145.345 251.543C145.342 251.679 145.34 251.816 145.34 251.954C145.34 260.263 152.338 267 160.971 267C169.604 267 176.603 260.263 176.603 251.954C176.603 251.816 176.601 251.679 176.597 251.543C176.601 251.349 176.603 251.152 176.603 250.95C176.603 228.731 169.604 198.789 160.971 198.789C152.338 198.789 145.34 228.731 145.34 250.95C145.34 251.152 145.342 251.349 145.345 251.543Z" fill="white"/>
<path d="M176.597 120.457C176.601 120.321 176.603 120.184 176.603 120.046C176.603 111.737 169.604 105 160.971 105C152.338 105 145.34 111.737 145.34 120.046C145.34 120.184 145.342 120.321 145.345 120.457C145.342 120.651 145.34 120.848 145.34 121.05C145.34 143.269 152.338 173.211 160.971 173.211C169.604 173.211 176.603 143.269 176.603 121.05C176.603 120.848 176.601 120.651 176.597 120.457Z" fill="white"/>
<circle cx="160.971" cy="186.917" r="17.0526" fill="#FFB84C"/>
<path d="M72.7448 73.222V73.258C72.7448 74.806 73.8788 75.94 75.4268 75.94H85.5788C87.1268 75.94 88.2608 74.806 88.2608 73.258V73.222C88.2608 71.674 87.1268 70.54 85.5788 70.54H75.4268C73.8788 70.54 72.7448 71.674 72.7448 73.222ZM82.8522 73.222V73.258C82.8522 74.806 83.9862 75.94 85.5342 75.94H95.6862C97.2342 75.94 98.3682 74.806 98.3682 73.258V73.222C98.3682 71.674 97.2342 70.54 95.6862 70.54H85.5342C83.9862 70.54 82.8522 71.674 82.8522 73.222ZM92.9596 73.222V73.258C92.9596 74.806 94.0936 75.94 95.6416 75.94H105.794C107.342 75.94 108.476 74.806 108.476 73.258V73.222C108.476 71.674 107.342 70.54 105.794 70.54H95.6416C94.0936 70.54 92.9596 71.674 92.9596 73.222ZM103.067 73.222V73.258C103.067 74.806 104.201 75.94 105.749 75.94H110.933C112.481 75.94 113.615 74.806 113.615 73.258V73.222C113.615 71.674 112.481 70.54 110.933 70.54H105.749C104.201 70.54 103.067 71.674 103.067 73.222ZM108.217 73.222V73.258C108.217 74.806 109.351 75.94 110.899 75.94H121.051C122.599 75.94 123.733 74.806 123.733 73.258V73.222C123.733 71.674 122.599 70.54 121.051 70.54H110.899C109.351 70.54 108.217 71.674 108.217 73.222ZM118.325 73.222V73.258C118.325 74.806 119.459 75.94 121.007 75.94H126.191C127.739 75.94 128.873 74.806 128.873 73.258V73.222C128.873 71.674 127.739 70.54 126.191 70.54H121.007C119.459 70.54 118.325 71.674 118.325 73.222ZM123.475 73.222V73.258C123.475 74.806 124.609 75.94 126.157 75.94H136.309C137.857 75.94 138.991 74.806 138.991 73.258V73.222C138.991 71.674 137.857 70.54 136.309 70.54H126.157C124.609 70.54 123.475 71.674 123.475 73.222ZM133.583 73.222V73.258C133.583 74.806 134.717 75.94 136.265 75.94H146.417C147.965 75.94 149.099 74.806 149.099 73.258V73.222C149.099 71.674 147.965 70.54 146.417 70.54H136.265C134.717 70.54 133.583 71.674 133.583 73.222ZM143.69 73.222V73.258C143.69 74.806 144.824 75.94 146.372 75.94H156.524C158.072 75.94 159.206 74.806 159.206 73.258V73.222C159.206 71.674 158.072 70.54 156.524 70.54H146.372C144.824 70.54 143.69 71.674 143.69 73.222Z" fill="#A46ADE" fill-opacity="0.5"/>
<path fill-rule="evenodd" clip-rule="evenodd" d="M56.9711 80C62.494 80 66.9711 73.5 66.9711 73.5C66.9709 73.516 66.9045 73.4319 66.7781 73.272C65.8651 72.1165 61.8223 67 56.9711 67C52.1944 67 48.2 71.9882 47.2078 73.2272C47.0528 73.4207 46.9711 73.5227 46.9711 73.5C46.9711 73.5 51.4483 80 56.9711 80ZM56.9711 76.75C58.8121 76.75 60.3045 75.2949 60.3045 73.5C60.3045 71.7051 58.8121 70.25 56.9711 70.25C55.1302 70.25 53.6378 71.7051 53.6378 73.5C53.6378 75.2949 55.1302 76.75 56.9711 76.75Z" fill="#A46ADE" fill-opacity="0.5"/>
<path d="M47.1188 55.012V55.068C47.1188 57.476 48.8828 59.24 51.2908 59.24H67.0828C69.4908 59.24 71.2548 57.476 71.2548 55.068V55.012C71.2548 52.604 69.4908 50.84 67.0828 50.84H51.2908C48.8828 50.84 47.1188 52.604 47.1188 55.012ZM62.8414 55.012V55.068C62.8414 57.476 64.6054 59.24 67.0134 59.24H75.0774C77.4854 59.24 79.2494 57.476 79.2494 55.068V55.012C79.2494 52.604 77.4854 50.84 75.0774 50.84H67.0134C64.6054 50.84 62.8414 52.604 62.8414 55.012ZM70.8532 55.012V55.068C70.8532 57.476 72.6172 59.24 75.0252 59.24H90.8172C93.2252 59.24 94.9892 57.476 94.9892 55.068V55.012C94.9892 52.604 93.2252 50.84 90.8172 50.84H75.0252C72.6172 50.84 70.8532 52.604 70.8532 55.012ZM86.5758 55.012V55.068C86.5758 57.476 88.3398 59.24 90.7478 59.24H106.54C108.948 59.24 110.712 57.476 110.712 55.068V55.012C110.712 52.604 108.948 50.84 106.54 50.84H90.7478C88.3398 50.84 86.5758 52.604 86.5758 55.012ZM102.298 55.012V55.068C102.298 57.476 104.062 59.24 106.47 59.24H122.262C124.67 59.24 126.434 57.476 126.434 55.068V55.012C126.434 52.604 124.67 50.84 122.262 50.84H106.47C104.062 50.84 102.298 52.604 102.298 55.012ZM134.81 55.012V55.068C134.81 57.476 136.574 59.24 138.982 59.24H154.774C157.182 59.24 158.946 57.476 158.946 55.068V55.012C158.946 52.604 157.182 50.84 154.774 50.84H138.982C136.574 50.84 134.81 52.604 134.81 55.012ZM150.533 55.012V55.068C150.533 57.476 152.297 59.24 154.705 59.24H170.497C172.905 59.24 174.669 57.476 174.669 55.068V55.012C174.669 52.604 172.905 50.84 170.497 50.84H154.705C152.297 50.84 150.533 52.604 150.533 55.012ZM166.256 55.012V55.068C166.256 57.476 168.02 59.24 170.428 59.24H186.22C188.628 59.24 190.392 57.476 190.392 55.068V55.012C190.392 52.604 188.628 50.84 186.22 50.84H170.428C168.02 50.84 166.256 52.604 166.256 55.012ZM181.978 55.012V55.068C181.978 57.476 183.742 59.24 186.15 59.24H201.942C204.35 59.24 206.114 57.476 206.114 55.068V55.012C206.114 52.604 204.35 50.84 201.942 50.84H186.15C183.742 50.84 181.978 52.604 181.978 55.012ZM197.701 55.012V55.068C197.701 57.476 199.465 59.24 201.873 59.24H217.665C220.073 59.24 221.837 57.476 221.837 55.068V55.012C221.837 52.604 220.073 50.84 217.665 50.84H201.873C199.465 50.84 197.701 52.604 197.701 55.012Z" fill="#A46BDE"/>
<defs>
<linearGradient id="paint0_linear" x1="79.9711" y1="186" x2="148.182" y2="186" gradientUnits="userSpaceOnUse">
<stop stop-color="white" stop-opacity="0.9"/>
<stop offset="1" stop-color="white" stop-opacity="0.8"/>
</linearGradient>
<linearGradient id="paint1_linear" x1="241.971" y1="186" x2="173.761" y2="186" gradientUnits="userSpaceOnUse">
<stop stop-color="white" stop-opacity="0.9"/>
<stop offset="1" stop-color="white" stop-opacity="0.8"/>
</linearGradient>
<linearGradient id="paint2_linear" x1="201.116" y1="255.74" x2="167.011" y2="196.668" gradientUnits="userSpaceOnUse">
<stop stop-color="white" stop-opacity="0.9"/>
<stop offset="1" stop-color="white" stop-opacity="0.8"/>
</linearGradient>
<linearGradient id="paint3_linear" x1="120.826" y1="116.674" x2="154.931" y2="175.746" gradientUnits="userSpaceOnUse">
<stop stop-color="white" stop-opacity="0.9"/>
<stop offset="1" stop-color="white" stop-opacity="0.8"/>
</linearGradient>
<linearGradient id="paint4_linear" x1="120.826" y1="255.74" x2="154.931" y2="196.668" gradientUnits="userSpaceOnUse">
<stop stop-color="white" stop-opacity="0.9"/>
<stop offset="1" stop-color="white" stop-opacity="0.8"/>
</linearGradient>
<linearGradient id="paint5_linear" x1="201.116" y1="116.674" x2="167.01" y2="175.746" gradientUnits="userSpaceOnUse">
<stop stop-color="white" stop-opacity="0.9"/>
<stop offset="1" stop-color="white" stop-opacity="0.8"/>
</linearGradient>
</defs>
</svg>
