<svg width="321" height="320" viewBox="0 0 321 320" fill="none" xmlns="http://www.w3.org/2000/svg">
<circle cx="160.971" cy="160" r="160" fill="white" fill-opacity="0.25"/>
<mask id="mask0" maskContentUnits="userSpaceOnUse" maskUnits="userSpaceOnUse" x="0" y="0" width="321" height="320">
<circle cx="160.941" cy="160" r="160" fill="#000"/>
</mask>
<g>
<rect x="117.367" y="171.25" width="28.7671" height="17.1429" rx="8" transform="rotate(-45 117.367 171.25)" fill="#FFB84C"/>
<rect x="117.367" y="171.25" width="28.7671" height="17.1429" rx="8" transform="rotate(-45 117.367 171.25)" fill="#ffb84c"/>
<rect x="137.57" y="191.453" width="27.3288" height="17.1429" rx="8" transform="rotate(-45 137.57 191.453)" fill="#FFB84C"/>
<rect x="137.57" y="191.453" width="27.3288" height="17.1429" rx="8" transform="rotate(-45 137.57 191.453)" fill="#ffb84c"/>
<rect x="63.4617" y="225.155" width="50.3425" height="45.7143" rx="8" transform="rotate(-45 63.4617 225.155)" fill="#6D757C"/>
<rect x="63.4617" y="225.155" width="50.3425" height="45.7143" rx="8" transform="rotate(-45 63.4617 225.155)" fill="url(#paint2_linear)"/>
<path d="M66.7527 216.241C63.7838 213.272 63.6152 208.513 66.3666 205.342L108.771 156.462C111.812 152.956 117.189 152.765 120.471 156.047L164.894 200.471C168.176 203.753 167.986 209.129 164.48 212.171L115.6 254.575C112.428 257.326 107.669 257.158 104.7 254.189L66.7527 216.241Z" fill="#92979C"/>
<rect x="46.248" y="277.38" width="45" height="16" transform="rotate(-45 32.248 277.38)" fill="#C6CACD"/>
<rect width="50.3425" height="45.7143" rx="8" transform="matrix(-0.707107 0.707107 0.707107 0.707107 226.096 62.5203)" fill="#6D757C"/>
<rect width="50.3425" height="45.7143" rx="8" transform="matrix(-0.707107 0.707107 0.707107 0.707107 226.096 62.5203)" fill="url(#paint3_linear)"/>
<path d="M217.182 65.8113C214.214 62.8425 209.455 62.6739 206.283 65.4252L157.403 107.83C153.897 110.871 153.707 116.248 156.988 119.529L201.412 163.953C204.694 167.235 210.071 167.044 213.112 163.539L255.516 114.658C258.268 111.487 258.099 106.728 255.13 103.759L217.182 65.8113Z" fill="#92979C"/>
<rect x="236.602" y="73.0259" width="45" height="16" transform="rotate(-45 236.602 73.0259)" fill="#C6CACD"/>
</g>
<defs>
<linearGradient id="paint0_linear" x1="146.134" y1="179.822" x2="117.367" y2="179.822" gradientUnits="userSpaceOnUse">
<stop offset="0.40884" stop-color="#B26F21" stop-opacity="0"/>
<stop offset="0.629834" stop-color="#B26F21"/>
</linearGradient>
<linearGradient id="paint1_linear" x1="164.898" y1="200.025" x2="137.57" y2="200.025" gradientUnits="userSpaceOnUse">
<stop offset="0.40884" stop-color="#B26F21" stop-opacity="0"/>
<stop offset="0.629834" stop-color="#B26F21"/>
</linearGradient>
<linearGradient id="paint2_linear" x1="63.4617" y1="248.012" x2="89.3521" y2="248.012" gradientUnits="userSpaceOnUse">
<stop offset="0.18232" stop-color="#3F484F" stop-opacity="0"/>
<stop offset="0.59116" stop-color="#3F484F"/>
</linearGradient>
<linearGradient id="paint3_linear" x1="0" y1="22.8571" x2="25.8904" y2="22.8571" gradientUnits="userSpaceOnUse">
<stop offset="0.18232" stop-color="#3F484F" stop-opacity="0"/>
<stop offset="0.59116" stop-color="#3F484F"/>
</linearGradient>
</defs>
</svg>
