<svg width="322" height="363" viewBox="0 0 322 363" fill="none" xmlns="http://www.w3.org/2000/svg">
<circle cx="160.971" cy="160" r="160" fill="white" fill-opacity="0.25"/>
<rect x="26.9712" y="26.5895" width="270" height="270" rx="135" fill="#D6AEFE"/>
<g opacity="0.8">
<path d="M78.6263 141.719C78.4531 141.715 78.2787 141.712 78.1043 141.712C67.5375 141.712 58.9712 150.612 58.9712 161.589C58.9712 172.567 67.5375 181.467 78.1043 181.467C78.2787 181.467 78.4531 181.464 78.6263 181.46C78.8729 181.464 79.1233 181.467 79.3799 181.467C107.634 181.467 145.708 172.567 145.708 161.589C145.708 150.612 107.634 141.712 79.3799 141.712C79.1233 141.712 78.8729 141.715 78.6263 141.719Z" fill="url(#paint1_linear)"/>
</g>
<g opacity="0.8">
<path d="M245.316 181.46C245.489 181.464 245.664 181.467 245.838 181.467C256.405 181.467 264.971 172.567 264.971 161.589C264.971 150.612 256.405 141.712 245.838 141.712C245.664 141.712 245.489 141.715 245.316 141.719C245.07 141.715 244.819 141.712 244.563 141.712C216.309 141.712 178.234 150.612 178.234 161.589C178.234 172.567 216.309 181.467 244.563 181.467C244.819 181.467 245.07 181.464 245.316 181.46Z" fill="url(#paint1_linear)"/>
</g>
<g opacity="0.8">
<path d="M185.984 243.184C186.067 243.336 186.152 243.489 186.239 243.64C191.522 252.791 203.513 255.76 213.02 250.271C222.527 244.782 225.951 232.914 220.667 223.763C220.58 223.612 220.491 223.462 220.4 223.314C220.281 223.098 220.158 222.88 220.029 222.658C205.903 198.19 179.158 169.666 169.651 175.155C160.144 180.644 171.474 218.067 185.601 242.535C185.729 242.757 185.857 242.973 185.984 243.184Z" fill="url(#paint2_linear)"/>
</g>
<g opacity="0.8">
<path d="M137.958 80.5214C137.875 80.3692 137.79 80.2169 137.703 80.0659C132.42 70.9147 120.429 67.9458 110.922 73.4347C101.415 78.9236 97.9914 90.7919 103.275 99.9431C103.362 100.094 103.451 100.244 103.542 100.392C103.661 100.607 103.784 100.825 103.913 101.048C118.039 125.516 144.784 154.04 154.291 148.551C163.798 143.062 152.468 105.639 138.341 81.1705C138.213 80.9483 138.085 80.7328 137.958 80.5214Z" fill="url(#paint3_linear)"/>
</g>
<g opacity="0.8">
<path d="M103.542 223.314C103.452 223.462 103.362 223.612 103.275 223.763C97.9917 232.914 101.416 244.782 110.923 250.271C120.43 255.76 132.42 252.791 137.703 243.64C137.791 243.489 137.876 243.336 137.958 243.184C138.085 242.973 138.213 242.757 138.341 242.535C152.468 218.067 163.798 180.644 154.291 175.155C144.784 169.666 118.04 198.19 103.913 222.658C103.785 222.88 103.662 223.098 103.542 223.314Z" fill="url(#paint4_linear)"/>
</g>
<g opacity="0.8">
<path d="M220.4 100.392C220.49 100.244 220.58 100.094 220.667 99.9431C225.95 90.7919 222.526 78.9236 213.019 73.4347C203.512 67.9458 191.522 70.9147 186.239 80.0659C186.151 80.2169 186.066 80.3692 185.984 80.5214C185.857 80.7328 185.729 80.9483 185.601 81.1705C171.474 105.639 160.144 143.062 169.651 148.551C179.158 154.04 205.902 125.516 220.029 101.048C220.157 100.825 220.28 100.607 220.4 100.392Z" fill="url(#paint5_linear)"/>
</g>
<path d="M80.6398 185.865C80.4876 185.948 80.3353 186.033 80.1842 186.12C71.0331 191.403 68.0642 203.394 73.5531 212.901C79.0419 222.408 90.9103 225.832 100.061 220.548C100.212 220.461 100.362 220.372 100.51 220.281C100.726 220.162 100.944 220.039 101.166 219.911C125.635 205.784 154.158 179.039 148.669 169.532C143.181 160.025 105.757 171.355 81.2889 185.482C81.0667 185.611 80.8511 185.738 80.6398 185.865Z" fill="white"/>
<path d="M243.303 137.84C243.455 137.757 243.607 137.672 243.758 137.585C252.909 132.301 255.878 120.311 250.389 110.804C244.9 101.297 233.032 97.8731 223.881 103.157C223.73 103.244 223.58 103.333 223.433 103.424C223.217 103.543 222.999 103.666 222.776 103.794C198.308 117.921 169.784 144.666 175.273 154.173C180.762 163.68 218.185 152.349 242.654 138.223C242.876 138.094 243.091 137.967 243.303 137.84Z" fill="white"/>
<path d="M223.433 220.281C223.581 220.371 223.73 220.461 223.881 220.548C233.033 225.831 244.901 222.407 250.39 212.9C255.879 203.393 252.91 191.403 243.759 186.12C243.608 186.033 243.455 185.948 243.303 185.865C243.092 185.738 242.876 185.61 242.654 185.482C218.185 171.355 180.762 160.025 175.273 169.532C169.785 179.039 198.308 205.783 222.777 219.91C222.999 220.039 223.217 220.161 223.433 220.281Z" fill="white"/>
<path d="M100.509 103.424C100.362 103.333 100.212 103.244 100.061 103.157C90.9099 97.8733 79.0415 101.297 73.5526 110.804C68.0638 120.311 71.0327 132.302 80.1838 137.585C80.3348 137.672 80.4872 137.757 80.6394 137.84C80.8507 137.967 81.0662 138.094 81.2885 138.223C105.757 152.35 143.18 163.68 148.669 154.173C154.158 144.666 125.634 117.921 101.166 103.794C100.943 103.666 100.725 103.543 100.509 103.424Z" fill="white"/>
<path d="M142.101 244.934C142.097 245.108 142.094 245.282 142.094 245.456C142.094 256.023 150.993 264.589 161.971 264.589C172.949 264.589 181.848 256.023 181.848 245.456C181.848 245.282 181.846 245.108 181.841 244.934C181.846 244.688 181.848 244.437 181.848 244.181C181.848 215.927 172.949 177.853 161.971 177.853C150.993 177.853 142.094 215.927 142.094 244.181C142.094 244.437 142.097 244.688 142.101 244.934Z" fill="white"/>
<path d="M181.841 78.2445C181.846 78.0714 181.848 77.897 181.848 77.7226C181.848 67.1558 172.949 58.5895 161.971 58.5895C150.993 58.5895 142.094 67.1558 142.094 77.7226C142.094 77.897 142.097 78.0714 142.101 78.2445C142.097 78.4912 142.094 78.7415 142.094 78.9981C142.094 107.252 150.993 145.326 161.971 145.326C172.949 145.326 181.848 107.252 181.848 78.9981C181.848 78.7415 181.846 78.4912 181.841 78.2445Z" fill="white"/>
<ellipse cx="161.971" cy="162.756" rx="21.6842" ry="21.6842" fill="#FFB84C"/>
<path d="M296.696 258.03C305.107 305.21 298.558 321.057 266.704 334.469C246.08 343.152 223.37 344.879 206.32 332.895C197.036 326.368 185.657 312.961 184.742 301.075C178.188 285.508 187.997 291.562 195.081 280.36C202.493 268.638 207.7 239.869 223.988 233.011C250.297 221.934 273.378 212.502 289.126 234.22C292.445 238.797 295.05 252.178 296.696 258.03Z" fill="#FBD6BB"/>
<path d="M239.093 224.197C243.618 234.944 240.129 246.668 231.302 250.384C222.475 254.101 211.652 248.402 207.127 237.656C202.007 225.495 206.091 215.186 214.918 211.469C223.745 207.753 234.569 213.451 239.093 224.197Z" fill="#FBD6BB"/>
<ellipse cx="251.601" cy="234.475" rx="18.0958" ry="21.8658" transform="rotate(-22.8325 251.601 234.475)" fill="#FBD6BB"/>
<ellipse cx="276.618" cy="239.486" rx="13.5719" ry="21.1118" transform="rotate(-22.8325 276.618 239.486)" fill="#FBD6BB"/>
<path d="M149.781 163.629L172.018 154.266L234.922 288.129L202.956 301.587L149.781 163.629Z" fill="#FBD6BB"/>
<circle cx="160.899" cy="158.948" r="12.0639" transform="rotate(-22.8325 160.899 158.948)" fill="#FBD6BB"/>
<path d="M169.257 155.481C169.288 155.555 169.318 155.629 169.347 155.703L169.35 155.701L171.579 160.996L154.901 168.018L152.672 162.723L152.675 162.722C152.642 162.65 152.61 162.576 152.579 162.503C150.63 157.873 152.783 152.548 157.388 150.609C161.994 148.67 167.307 150.851 169.257 155.481Z" fill="#FFEDE0" fill-opacity="0.7"/>
<path d="M172.652 249.026C175.312 254.214 173.588 260.41 168.799 262.866C164.011 265.322 159.211 262.472 156.55 257.285C153.89 252.097 154.376 246.536 159.165 244.081C163.953 241.625 169.991 243.839 172.652 249.026Z" fill="#FBD6BB"/>
<path d="M184.456 312.457C177.908 304.291 163.228 272.22 156.55 257.285L171.964 247.685L206.25 290.264L227.257 312.537L205.041 331.797C195.093 323.714 191.039 320.668 184.456 312.457Z" fill="#FBD6BB"/>
<mask id="mask0" mask-type="alpha" maskUnits="userSpaceOnUse" x="154" y="243" width="74" height="91">
<path d="M171.881 247.736L171.964 247.684L206.25 290.264L227.257 312.537L205.703 333.76C202.854 330.739 199.926 328.031 197.014 325.339C192.684 321.336 188.392 317.367 184.456 312.458C177.908 304.291 163.228 272.22 156.551 257.285C153.89 252.097 154.376 246.536 159.165 244.081C163.535 241.839 168.946 243.488 171.881 247.736Z" fill="#FBD6BB"/>
</mask>
<g mask="url(#mask0)">
<path d="M166.962 254.956C166.999 255.045 167.035 255.133 167.07 255.222L167.073 255.221L169.748 261.574L150.291 269.767L147.616 263.413L147.619 263.412C147.58 263.325 147.541 263.237 147.504 263.148C145.165 257.593 147.624 251.255 152.997 248.993C158.37 246.73 164.622 249.4 166.962 254.956Z" fill="#FFEDE0" fill-opacity="0.7"/>
</g>
<defs>
<linearGradient id="paint0_linear" x1="58.9712" y1="161.589" x2="145.708" y2="161.589" gradientUnits="userSpaceOnUse">
<stop stop-color="white" stop-opacity="0.9"/>
<stop offset="1" stop-color="white" stop-opacity="0.8"/>
</linearGradient>
<linearGradient id="paint1_linear" x1="264.971" y1="161.589" x2="178.234" y2="161.589" gradientUnits="userSpaceOnUse">
<stop stop-color="white" stop-opacity="0.9"/>
<stop offset="1" stop-color="white" stop-opacity="0.8"/>
</linearGradient>
<linearGradient id="paint2_linear" x1="213.02" y1="250.271" x2="169.651" y2="175.155" gradientUnits="userSpaceOnUse">
<stop stop-color="white" stop-opacity="0.9"/>
<stop offset="1" stop-color="white" stop-opacity="0.8"/>
</linearGradient>
<linearGradient id="paint3_linear" x1="110.922" y1="73.4347" x2="154.291" y2="148.551" gradientUnits="userSpaceOnUse">
<stop stop-color="white" stop-opacity="0.9"/>
<stop offset="1" stop-color="white" stop-opacity="0.8"/>
</linearGradient>
<linearGradient id="paint4_linear" x1="110.923" y1="250.271" x2="154.291" y2="175.155" gradientUnits="userSpaceOnUse">
<stop stop-color="white" stop-opacity="0.9"/>
<stop offset="1" stop-color="white" stop-opacity="0.8"/>
</linearGradient>
<linearGradient id="paint5_linear" x1="213.019" y1="73.4347" x2="169.651" y2="148.551" gradientUnits="userSpaceOnUse">
<stop stop-color="white" stop-opacity="0.9"/>
<stop offset="1" stop-color="white" stop-opacity="0.8"/>
</linearGradient>
</defs>
</svg>
