<svg width="565" height="516" viewBox="0 0 565 516" fill="none" xmlns="http://www.w3.org/2000/svg">
<path d="M256.993 46.4965C258.59 43.3042 259.122 39.0479 259.122 34.7915C259.122 15.6379 243.692 0.208565 224.539 0.208565C224.007 0.208565 222.942 0.208565 222.41 0.208565H163.885C73.9697 0.208565 0.547426 73.0988 0.547426 163.547C0.547426 189.617 6.93197 214.091 17.5729 235.905L18.1049 237.501C20.2331 242.289 23.4254 247.61 26.6177 251.866L77.162 340.186C77.694 340.186 255.929 49.6888 256.993 46.4965Z" fill="#CC3366"/>
<path d="M564.516 67.2463C564.516 30.0031 534.721 0.208557 497.478 0.208557C497.478 0.208557 301.153 0.208557 300.621 0.208557C283.064 0.208557 271.359 8.72128 260.718 25.7467C246.885 48.6247 71.8865 330.987 71.8865 330.987L145.264 460.96C163.885 493.415 199 515.229 239.436 515.229C280.935 515.229 316.582 491.819 335.204 457.768L559.195 94.3806L558.663 93.3165C562.387 85.3359 564.516 76.8231 564.516 67.2463Z" fill="url(#paint0_linear)"/>
<defs>
<linearGradient id="paint0_linear" x1="82.0717" y1="257.719" x2="326.472" y2="257.719" gradientUnits="userSpaceOnUse">
<stop stop-color="#CC3366"/>
<stop offset="1" stop-color="#7F1143"/>
</linearGradient>
</defs>
</svg>
