<svg width="321" height="320" viewBox="0 0 321 320" fill="none" xmlns="http://www.w3.org/2000/svg">
<circle cx="160.971" cy="160" r="160" fill="white" fill-opacity="0.25"/>
<rect x="27.3182" y="25" width="270" height="270" rx="135" fill="#D6AEFE"/>
<g opacity="0.8">
<path d="M78.9732 140.13C78.8001 140.125 78.6257 140.123 78.4513 140.123C67.8845 140.123 59.3182 149.022 59.3182 160C59.3182 170.978 67.8845 179.877 78.4513 179.877C78.6257 179.877 78.8001 179.875 78.9732 179.87C79.2199 179.875 79.4702 179.877 79.7268 179.877C107.981 179.877 146.055 170.978 146.055 160C146.055 149.022 107.981 140.123 79.7268 140.123C79.4702 140.123 79.2199 140.125 78.9732 140.13Z" fill="url(#wither_linear_1)"/>
</g>
<g opacity="0.8">
<path d="M186.331 241.595C186.414 241.747 186.499 241.899 186.586 242.05C191.869 251.201 203.86 254.17 213.367 248.682C222.874 243.193 226.298 231.324 221.014 222.173C220.927 222.022 220.838 221.872 220.747 221.725C220.628 221.509 220.505 221.291 220.376 221.068C206.25 196.6 179.505 168.076 169.998 173.565C160.491 179.054 171.821 216.477 185.948 240.946C186.076 241.168 186.204 241.383 186.331 241.595Z" fill="url(#wither_linear_1)"/>
</g>
<g opacity="0.8">
<path d="M138.305 78.932C138.222 78.7797 138.137 78.6274 138.05 78.4764C132.767 69.3253 120.776 66.3563 111.269 71.8452C101.762 77.3341 98.3383 89.2025 103.622 98.3536C103.709 98.5046 103.798 98.6543 103.889 98.802C104.008 99.0179 104.131 99.236 104.26 99.4582C118.386 123.927 145.131 152.45 154.638 146.962C164.145 141.473 152.815 104.05 138.688 79.581C138.56 79.3588 138.432 79.1433 138.305 78.932Z" fill="url(#wither_linear_2)"/>
</g>
<g opacity="0.8">
<path d="M220.747 98.802C220.837 98.6543 220.927 98.5046 221.014 98.3536C226.297 89.2025 222.873 77.3341 213.366 71.8452C203.859 66.3563 191.869 69.3253 186.586 78.4764C186.498 78.6274 186.413 78.7797 186.331 78.9319C186.203 79.1433 186.076 79.3588 185.948 79.581C171.821 104.05 160.491 141.473 169.998 146.962C179.505 152.45 206.249 123.927 220.376 99.4582C220.504 99.236 220.627 99.0179 220.747 98.802Z" fill="url(#wither_linear_3)"/>
</g>
<path d="M80.9868 184.276C80.8346 184.358 80.6822 184.443 80.5312 184.531C71.3801 189.814 68.4112 201.804 73.9 211.311C79.3889 220.818 91.2573 224.242 100.408 218.959C100.559 218.872 100.709 218.782 100.857 218.692C101.073 218.572 101.291 218.449 101.513 218.321C125.982 204.194 154.505 177.45 149.016 167.943C143.527 158.436 106.104 169.766 81.6359 183.893C81.4136 184.021 81.1981 184.148 80.9868 184.276Z" fill="white"/>
<path d="M243.65 136.25C243.802 136.168 243.954 136.083 244.105 135.995C253.256 130.712 256.225 118.722 250.736 109.215C245.247 99.7076 233.379 96.2836 224.228 101.567C224.077 101.654 223.927 101.744 223.78 101.834C223.564 101.954 223.346 102.077 223.123 102.205C198.655 116.332 170.131 143.076 175.62 152.583C181.109 162.09 218.532 150.76 243 136.633C243.223 136.505 243.438 136.377 243.65 136.25Z" fill="white"/>
<path d="M223.78 218.692C223.928 218.782 224.077 218.871 224.228 218.959C233.38 224.242 245.248 220.818 250.737 211.311C256.226 201.804 253.257 189.814 244.106 184.53C243.955 184.443 243.802 184.358 243.65 184.276C243.439 184.148 243.223 184.021 243.001 183.893C218.532 169.766 181.109 158.436 175.62 167.943C170.132 177.45 198.655 204.194 223.124 218.321C223.346 218.449 223.564 218.572 223.78 218.692Z" fill="white"/>
<ellipse cx="162.318" cy="161.166" rx="21.6842" ry="21.6842" fill="#FFB84C"/>
<g style="mix-blend-mode:saturation">
<ellipse cx="162.318" cy="161.166" rx="21.6842" ry="21.6842" fill="#FFB84C"/>
</g>
<defs>
<linearGradient id="wither_linear_0" x1="59.3182" y1="160" x2="146.055" y2="160" gradientUnits="userSpaceOnUse">
<stop stop-color="white" stop-opacity="0.9"/>
<stop offset="1" stop-color="white" stop-opacity="0.8"/>
</linearGradient>
<linearGradient id="wither_linear_1" x1="213.367" y1="248.682" x2="169.998" y2="173.565" gradientUnits="userSpaceOnUse">
<stop stop-color="white" stop-opacity="0.9"/>
<stop offset="1" stop-color="white" stop-opacity="0.8"/>
</linearGradient>
<linearGradient id="wither_linear_2" x1="111.269" y1="71.8452" x2="154.638" y2="146.962" gradientUnits="userSpaceOnUse">
<stop stop-color="white" stop-opacity="0.9"/>
<stop offset="1" stop-color="white" stop-opacity="0.8"/>
</linearGradient>
<linearGradient id="wither_linear_3" x1="213.366" y1="71.8452" x2="169.998" y2="146.962" gradientUnits="userSpaceOnUse">
<stop stop-color="white" stop-opacity="0.9"/>
<stop offset="1" stop-color="white" stop-opacity="0.8"/>
</linearGradient>
</defs>
</svg>
